<?xml version="1.0" encoding="utf-8"?>
<!-- Generator: Adobe Illustrator 19.1.0, SVG Export Plug-In . SVG Version: 6.00 Build 0)  -->
<svg version="1.1" id="svg2" xmlns:svg="http://www.w3.org/2000/svg"
	 xmlns="http://www.w3.org/2000/svg" xmlns:xlink="http://www.w3.org/1999/xlink" x="0px" y="0px" viewBox="-273 397.4 47.5 47.5"
	 style="enable-background:new -273 397.4 47.5 47.5;" xml:space="preserve">
<style type="text/css">
	.st0{clip-path:url(#SVGID_2_);}
	.st1{fill:#FFFF1A;}
	.st2{fill:#CCD6DD;}
	.st3{stroke:#FFCC4D;stroke-width:2;stroke-miterlimit:10;}
	.st4{fill:none;stroke:#FFCC4D;stroke-width:2;stroke-miterlimit:10;}
	.st5{fill:#99AAB5;}
</style>
<g id="g14">
	<g>
		<defs>
			<rect id="SVGID_1_" x="-273" y="397.4" width="47.5" height="47.5"/>
		</defs>
		<clipPath id="SVGID_2_">
			<use xlink:href="#SVGID_1_"  style="overflow:visible;"/>
		</clipPath>
		<g id="g22" transform="translate(30,25.9399)" class="st0">
			<path id="path24" class="st1" d="M-265.5,386.5c0,8-6.3,9.3-6.3,16.8c0,3.9-3.9,4.2-6.9,4.2c-2.6,0-8.2-1-8.2-4.2
				c0-7.5-6.1-8.7-6.1-16.8c0-7.5,6.6-13.7,13.9-13.7C-271.9,372.9-265.5,379-265.5,386.5"/>
		</g>
		<g id="g26" transform="translate(23.167,4.5)" class="st0">
			<path id="path28" class="st2" d="M-267.5,432.8c0,1-2.8,3.1-5.2,3.1c-2.4,0-5.2-2.1-5.2-3.1s2.8-0.6,5.2-0.6
				C-270.3,432.1-267.5,431.7-267.5,432.8"/>
		</g>
	</g>
</g>
<line class="st3" x1="-253.3" y1="414.8" x2="-249.9" y2="432.3"/>
<line class="st3" x1="-244.9" y1="415" x2="-248.6" y2="432.5"/>
<path class="st4" d="M-253.2,415c2.2,2.2,5.9,2.2,8.1,0"/>
<g id="g34" transform="translate(25,6)">
	<path id="path36" class="st5" d="M-266.9,430c0,0.9-1.1,1.6-2.5,1.6h-10c-1.4,0-2.5-0.7-2.5-1.6v-4.9h15V430z"/>
</g>
</svg>
